<mxfile host="app.diagrams.net" agent="Mozilla/5.0 (X11; Linux x86_64) AppleWebKit/537.36 (KHTML, like Gecko) Chrome/139.0.0.0 Safari/537.36" version="28.2.7">
  <diagram name="Page-1" id="T6XlYgK8FOrjI4Iq1TFO">
    <mxGraphModel dx="711" dy="490" grid="1" gridSize="10" guides="1" tooltips="1" connect="1" arrows="1" fold="1" page="1" pageScale="1" pageWidth="827" pageHeight="1169" math="0" shadow="0">
      <root>
        <mxCell id="0" />
        <mxCell id="1" parent="0" />
        <mxCell id="mjBSxC1Lj_yO53yyNqjp-4" value="" style="edgeStyle=orthogonalEdgeStyle;rounded=0;orthogonalLoop=1;jettySize=auto;html=1;strokeWidth=3;fillColor=#d80073;strokeColor=#A50040;" edge="1" parent="1" source="mjBSxC1Lj_yO53yyNqjp-1">
          <mxGeometry relative="1" as="geometry">
            <mxPoint x="280" y="120" as="targetPoint" />
          </mxGeometry>
        </mxCell>
        <mxCell id="mjBSxC1Lj_yO53yyNqjp-1" value="Backend (Flask)" style="swimlane;whiteSpace=wrap;html=1;fillColor=#d80073;fontColor=#ffffff;strokeColor=#A50040;" vertex="1" parent="1">
          <mxGeometry x="40" y="70" width="200" height="100" as="geometry">
            <mxRectangle x="40" y="50" width="130" height="30" as="alternateBounds" />
          </mxGeometry>
        </mxCell>
        <mxCell id="mjBSxC1Lj_yO53yyNqjp-2" value="&lt;ul&gt;&lt;li&gt;&lt;font style=&quot;color: light-dark(rgb(0, 0, 0), rgb(0, 0, 0));&quot;&gt;Logique bancaire&amp;nbsp; &amp;nbsp; &amp;nbsp; &amp;nbsp; &amp;nbsp; &amp;nbsp;&amp;nbsp;&lt;/font&gt;&lt;/li&gt;&lt;li&gt;&lt;font style=&quot;color: light-dark(rgb(0, 0, 0), rgb(0, 0, 0));&quot;&gt;Dépôt / Retrait&amp;nbsp; &amp;nbsp; &amp;nbsp; &amp;nbsp; &amp;nbsp; &amp;nbsp; &amp;nbsp; &amp;nbsp; &amp;nbsp;&lt;/font&gt;&lt;/li&gt;&lt;li&gt;&lt;font style=&quot;color: light-dark(rgb(0, 0, 0), rgb(0, 0, 0));&quot;&gt;Gestion comptes (CRUD)&lt;/font&gt;&lt;/li&gt;&lt;li&gt;&lt;font style=&quot;color: light-dark(rgb(0, 0, 0), rgb(0, 0, 0));&quot;&gt;Base de données SQLite&lt;/font&gt;&lt;/li&gt;&lt;/ul&gt;" style="text;html=1;whiteSpace=wrap;strokeColor=#A50040;fillColor=#d80073;align=left;verticalAlign=middle;rounded=0;fontColor=#ffffff;" vertex="1" parent="1">
          <mxGeometry x="40" y="90" width="200" height="80" as="geometry" />
        </mxCell>
        <mxCell id="mjBSxC1Lj_yO53yyNqjp-5" value="&lt;font style=&quot;color: light-dark(rgb(0, 0, 0), rgb(0, 0, 0));&quot;&gt;Frontend (Web)&lt;/font&gt;" style="swimlane;whiteSpace=wrap;html=1;fillColor=#1ba1e2;fontColor=#ffffff;strokeColor=#006EAF;" vertex="1" parent="1">
          <mxGeometry x="280" y="70" width="200" height="100" as="geometry">
            <mxRectangle x="40" y="50" width="130" height="30" as="alternateBounds" />
          </mxGeometry>
        </mxCell>
        <mxCell id="mjBSxC1Lj_yO53yyNqjp-6" value="&lt;ul&gt;&lt;li&gt;&lt;font style=&quot;color: light-dark(rgb(0, 0, 0), rgb(0, 0, 0));&quot;&gt;HTML / CSS / JS&lt;/font&gt;&lt;/li&gt;&lt;li&gt;&lt;font style=&quot;color: light-dark(rgb(0, 0, 0), rgb(0, 0, 0));&quot;&gt;Templates Flask&lt;/font&gt;&lt;/li&gt;&lt;li&gt;&lt;font style=&quot;color: light-dark(rgb(0, 0, 0), rgb(0, 0, 0));&quot;&gt;Pages login / register&lt;/font&gt;&lt;/li&gt;&lt;/ul&gt;" style="text;html=1;whiteSpace=wrap;strokeColor=#006EAF;fillColor=#1ba1e2;align=left;verticalAlign=middle;rounded=0;fontColor=#ffffff;" vertex="1" parent="1">
          <mxGeometry x="280" y="90" width="200" height="80" as="geometry" />
        </mxCell>
        <mxCell id="mjBSxC1Lj_yO53yyNqjp-7" value="&lt;font style=&quot;color: light-dark(rgb(0, 0, 0), rgb(0, 0, 0));&quot;&gt;Préparation Docker&lt;/font&gt;" style="swimlane;whiteSpace=wrap;html=1;fillColor=#e3c800;fontColor=#000000;strokeColor=#B09500;" vertex="1" parent="1">
          <mxGeometry x="520" y="70" width="150" height="100" as="geometry" />
        </mxCell>
        <mxCell id="mjBSxC1Lj_yO53yyNqjp-8" value="&lt;ul&gt;&lt;li&gt;&lt;font style=&quot;color: light-dark(rgb(0, 0, 0), rgb(0, 0, 0));&quot;&gt;requirements.txt&lt;/font&gt;&lt;/li&gt;&lt;li&gt;&lt;font style=&quot;color: light-dark(rgb(0, 0, 0), rgb(0, 0, 0));&quot;&gt;Dockerfile&lt;/font&gt;&lt;/li&gt;&lt;li&gt;&lt;font style=&quot;color: light-dark(rgb(0, 0, 0), rgb(0, 0, 0));&quot;&gt;.dockerignore&lt;/font&gt;&lt;/li&gt;&lt;/ul&gt;" style="text;html=1;whiteSpace=wrap;strokeColor=#B09500;fillColor=#e3c800;align=left;verticalAlign=middle;rounded=0;fontColor=#000000;" vertex="1" parent="mjBSxC1Lj_yO53yyNqjp-7">
          <mxGeometry y="20" width="150" height="80" as="geometry" />
        </mxCell>
        <mxCell id="mjBSxC1Lj_yO53yyNqjp-9" value="&lt;font style=&quot;color: light-dark(rgb(0, 0, 0), rgb(0, 0, 0));&quot;&gt;Conteneurisation&lt;/font&gt;" style="swimlane;whiteSpace=wrap;html=1;fillColor=#6d8764;fontColor=#ffffff;strokeColor=#3A5431;" vertex="1" parent="1">
          <mxGeometry x="520" y="200" width="170" height="120" as="geometry" />
        </mxCell>
        <mxCell id="mjBSxC1Lj_yO53yyNqjp-10" value="&lt;ul&gt;&lt;li&gt;&lt;font style=&quot;color: light-dark(rgb(0, 0, 0), rgb(0, 0, 0));&quot;&gt;docker build&lt;/font&gt;&lt;/li&gt;&lt;li&gt;&lt;font style=&quot;color: light-dark(rgb(0, 0, 0), rgb(0, 0, 0));&quot;&gt;docker run&lt;/font&gt;&lt;/li&gt;&lt;li&gt;&lt;font style=&quot;color: light-dark(rgb(0, 0, 0), rgb(0, 0, 0));&quot;&gt;docker ps&lt;/font&gt;&lt;/li&gt;&lt;li&gt;&lt;font style=&quot;color: light-dark(rgb(0, 0, 0), rgb(0, 0, 0));&quot;&gt;docker tage&lt;/font&gt;&lt;/li&gt;&lt;li&gt;&lt;font style=&quot;color: light-dark(rgb(0, 0, 0), rgb(0, 0, 0));&quot;&gt;docker push&lt;/font&gt;&lt;/li&gt;&lt;li&gt;&lt;font style=&quot;color: light-dark(rgb(0, 0, 0), rgb(0, 0, 0));&quot;&gt;docker images&lt;/font&gt;&lt;/li&gt;&lt;/ul&gt;" style="text;html=1;whiteSpace=wrap;strokeColor=#3A5431;fillColor=#6d8764;align=left;verticalAlign=middle;rounded=0;fontColor=#ffffff;" vertex="1" parent="mjBSxC1Lj_yO53yyNqjp-9">
          <mxGeometry y="20" width="170" height="100" as="geometry" />
        </mxCell>
        <mxCell id="mjBSxC1Lj_yO53yyNqjp-11" value="&lt;font style=&quot;color: light-dark(rgb(0, 0, 0), rgb(0, 0, 0));&quot;&gt;Tests &amp;amp; Validation&lt;/font&gt;" style="swimlane;whiteSpace=wrap;html=1;fillColor=#008a00;strokeColor=#005700;fontColor=#ffffff;" vertex="1" parent="1">
          <mxGeometry x="330" y="350" width="440" height="140" as="geometry" />
        </mxCell>
        <mxCell id="mjBSxC1Lj_yO53yyNqjp-12" value="&lt;ul&gt;&lt;li&gt;&lt;b&gt;&lt;font style=&quot;color: light-dark(rgb(0, 0, 0), rgb(0, 0, 0));&quot;&gt;Vérification du port&lt;/font&gt;&lt;/b&gt;&lt;/li&gt;&lt;li&gt;&lt;b&gt;&lt;font style=&quot;color: light-dark(rgb(0, 0, 0), rgb(0, 0, 0));&quot;&gt;Accès navigateur&lt;/font&gt;&lt;/b&gt;&lt;/li&gt;&lt;li&gt;&lt;font style=&quot;color: light-dark(rgb(0, 0, 0), rgb(0, 0, 0));&quot;&gt;&lt;b&gt;&lt;font&gt;Tests fonctionnels&lt;/font&gt;&lt;/b&gt;&lt;br&gt;&lt;br&gt;&lt;/font&gt;&lt;/li&gt;&lt;li&gt;&lt;font style=&quot;color: light-dark(rgb(0, 0, 0), rgb(0, 0, 0));&quot;&gt;Automatisation du lancement (run_gestion_bancaire.sh)&lt;br&gt;&lt;br&gt;&lt;/font&gt;&lt;/li&gt;&lt;li&gt;&lt;font style=&quot;color: light-dark(rgb(0, 0, 0), rgb(0, 0, 0));&quot;&gt;Télécharger et lancer un conteneur depuis une VM&lt;/font&gt;&lt;/li&gt;&lt;/ul&gt;" style="text;html=1;whiteSpace=wrap;strokeColor=#005700;fillColor=#008a00;align=left;verticalAlign=middle;rounded=0;fontColor=#ffffff;" vertex="1" parent="mjBSxC1Lj_yO53yyNqjp-11">
          <mxGeometry y="20" width="440" height="120" as="geometry" />
        </mxCell>
        <mxCell id="mjBSxC1Lj_yO53yyNqjp-36" value="" style="endArrow=none;html=1;rounded=0;strokeWidth=4;fillColor=#d5e8d4;gradientColor=#97d077;strokeColor=#82b366;" edge="1" parent="mjBSxC1Lj_yO53yyNqjp-11">
          <mxGeometry width="50" height="50" relative="1" as="geometry">
            <mxPoint x="-90" y="120" as="sourcePoint" />
            <mxPoint x="-10" y="120" as="targetPoint" />
          </mxGeometry>
        </mxCell>
        <mxCell id="mjBSxC1Lj_yO53yyNqjp-15" value="" style="edgeStyle=orthogonalEdgeStyle;rounded=0;orthogonalLoop=1;jettySize=auto;html=1;exitX=1;exitY=0.5;exitDx=0;exitDy=0;strokeWidth=3;fillColor=#1ba1e2;strokeColor=#006EAF;" edge="1" parent="1" source="mjBSxC1Lj_yO53yyNqjp-5">
          <mxGeometry relative="1" as="geometry">
            <mxPoint x="490" y="120" as="sourcePoint" />
            <mxPoint x="520" y="120" as="targetPoint" />
          </mxGeometry>
        </mxCell>
        <mxCell id="mjBSxC1Lj_yO53yyNqjp-17" value="" style="endArrow=classic;html=1;rounded=0;exitX=0.5;exitY=1;exitDx=0;exitDy=0;strokeWidth=3;fillColor=#e3c800;strokeColor=#B09500;" edge="1" parent="1" source="mjBSxC1Lj_yO53yyNqjp-7">
          <mxGeometry width="50" height="50" relative="1" as="geometry">
            <mxPoint x="430" y="340" as="sourcePoint" />
            <mxPoint x="595" y="196" as="targetPoint" />
          </mxGeometry>
        </mxCell>
        <mxCell id="mjBSxC1Lj_yO53yyNqjp-19" value="" style="endArrow=classic;html=1;rounded=0;entryX=0.593;entryY=-0.014;entryDx=0;entryDy=0;entryPerimeter=0;fillColor=#6d8764;strokeColor=#3A5431;strokeWidth=3;" edge="1" parent="1" target="mjBSxC1Lj_yO53yyNqjp-11">
          <mxGeometry width="50" height="50" relative="1" as="geometry">
            <mxPoint x="591" y="320" as="sourcePoint" />
            <mxPoint x="600" y="370" as="targetPoint" />
          </mxGeometry>
        </mxCell>
        <mxCell id="mjBSxC1Lj_yO53yyNqjp-23" value="" style="endArrow=none;html=1;rounded=0;strokeWidth=4;fillColor=#d5e8d4;gradientColor=#97d077;strokeColor=#82b366;" edge="1" parent="1">
          <mxGeometry width="50" height="50" relative="1" as="geometry">
            <mxPoint x="280" y="430" as="sourcePoint" />
            <mxPoint x="280" y="380" as="targetPoint" />
          </mxGeometry>
        </mxCell>
        <mxCell id="mjBSxC1Lj_yO53yyNqjp-24" value="" style="endArrow=none;html=1;rounded=0;strokeWidth=4;fillColor=#d5e8d4;gradientColor=#97d077;strokeColor=#82b366;" edge="1" parent="1">
          <mxGeometry width="50" height="50" relative="1" as="geometry">
            <mxPoint x="330" y="380" as="sourcePoint" />
            <mxPoint x="280" y="380" as="targetPoint" />
          </mxGeometry>
        </mxCell>
        <mxCell id="mjBSxC1Lj_yO53yyNqjp-25" value="" style="endArrow=none;html=1;rounded=0;strokeWidth=4;fillColor=#d5e8d4;gradientColor=#97d077;strokeColor=#82b366;" edge="1" parent="1" target="mjBSxC1Lj_yO53yyNqjp-12">
          <mxGeometry width="50" height="50" relative="1" as="geometry">
            <mxPoint x="280" y="430" as="sourcePoint" />
            <mxPoint x="310" y="430" as="targetPoint" />
          </mxGeometry>
        </mxCell>
        <mxCell id="mjBSxC1Lj_yO53yyNqjp-34" value="" style="endArrow=classic;html=1;rounded=0;strokeWidth=4;fillColor=#d5e8d4;gradientColor=#97d077;strokeColor=#82b366;" edge="1" parent="1">
          <mxGeometry width="50" height="50" relative="1" as="geometry">
            <mxPoint x="240" y="400" as="sourcePoint" />
            <mxPoint x="280" y="400" as="targetPoint" />
          </mxGeometry>
        </mxCell>
        <mxCell id="mjBSxC1Lj_yO53yyNqjp-35" value="" style="endArrow=none;html=1;rounded=0;strokeWidth=4;fillColor=#d5e8d4;gradientColor=#97d077;strokeColor=#82b366;" edge="1" parent="1">
          <mxGeometry width="50" height="50" relative="1" as="geometry">
            <mxPoint x="240" y="470" as="sourcePoint" />
            <mxPoint x="240" y="400" as="targetPoint" />
          </mxGeometry>
        </mxCell>
      </root>
    </mxGraphModel>
  </diagram>
</mxfile>
